<svg xmlns="http://www.w3.org/2000/svg" version="1.1" xmlns:xlink="http://www.w3.org/1999/xlink" width="1000" height="1000"><g clip-path="url(#SvgjsClipPath1015)"><rect width="1000" height="1000" fill="#0f172a"></rect><g transform="matrix(6,0,0,6,200,200)"><svg xmlns="http://www.w3.org/2000/svg" version="1.1" xmlns:xlink="http://www.w3.org/1999/xlink" width="100%" height="100%"><svg width="100%" height="100%" viewBox="0 0 2000 2000" version="1.1" xmlns="http://www.w3.org/2000/svg" xmlns:xlink="http://www.w3.org/1999/xlink" xml:space="preserve" xmlns:serif="http://www.serif.com/" style="fill-rule:evenodd;clip-rule:evenodd;stroke-linejoin:round;stroke-miterlimit:2;">
    <path d="M547,1566C547,1566 653.572,1528.185 837,1565C888.939,1575.425 933.818,1581.091 971.281,1583.9C1060.817,1590.612 1108,1581 1108,1581C1108,1581 1042.943,1592.973 811,1513C621.26,1447.579 465,1498 465,1498C441.843,1476.957 374.393,1399.714 376,1399C436.427,1372.171 540.406,1359.419 647.428,1378.241C770.781,1399.935 814.109,1434.265 974,1487C1314.202,1599.205 1573,1458 1573,1458C1424.629,1604.959 1242.438,1738.357 1001,1848C829.629,1769.851 676.615,1677.181 547,1566ZM307,1303C307,1303 400.336,1245.465 594,1245C862.651,1244.355 1028.095,1382.861 1335,1382C1536.955,1381.434 1660,1322 1660,1322C1660,1322 1556.726,1461.311 1259,1465C948.279,1468.85 754.693,1291.315 469,1292C396.307,1292.174 307,1303 307,1303ZM1840,606C1840,606 1850.008,826.48 1811,999C1776.8,1150.256 1706,1279 1706,1279C1706,1279 1601.768,1223.438 1457,1224C1287.263,1224.659 1104,1301 1104,1301C1104,1301 1112.573,1181.354 1546,990C1818.906,869.515 1840,606 1840,606ZM1002,138C1273.831,190.642 1519.604,246.231 1785,320C1793.755,596.599 1750.622,720.252 1617,849C1556.427,740.582 1479.202,662.245 1474,647C1468.798,631.755 1528.212,539.923 1487,504C1434.972,458.65 1332,487 1332,487C1332,487 1239.738,430.204 1099.665,411.702C959.592,393.201 832,428 832,428C847.69,349.427 847.692,264.044 834,173L1002,138ZM1152.347,1080C1152.735,1111.482 1148.78,1150.847 1134.347,1185C1090.437,1190.684 1053.663,1191.662 1025.347,1188C1020.188,1156.19 1018.239,1108.93 1021.347,1052C1059.807,1051.27 1106.082,1061.58 1152.347,1080ZM851,1080C897.265,1061.58 943.54,1051.27 982,1052C985.108,1108.93 983.159,1156.19 978,1188C949.684,1191.662 912.91,1190.684 869,1185C854.567,1150.847 850.612,1111.482 851,1080ZM1002,839C1052.284,840.121 1086.45,850.616 1117,868C1111.511,895.637 1055.378,947.426 1002,991C948.622,947.426 892.489,895.637 887,868C917.55,850.616 951.716,840.121 1002,839ZM215,322C319.521,293.183 427.738,265.46 530,242C363.232,366.618 258.048,491.874 216,612C212.997,517.208 211.607,420.075 215,322ZM411.404,427.997C522.13,295.337 607,231 607,231C607,231 635.344,242.14 661.976,227.215C696.906,207.638 705.125,151.83 705,151C705,151 768.587,293.78 719,469C663.353,665.633 545,746 545,746C556.051,706.488 563.023,668.826 564,631C564,631 476.553,710.749 396,855C305.787,1016.549 311,1159 311,1159C311,1159 103.395,797.023 411.404,427.997Z" style="fill:rgb(35,31,32);"></path>
</svg></svg></g></g><defs><clipPath id="SvgjsClipPath1015"><rect width="1000" height="1000" x="0" y="0" rx="350" ry="350"></rect></clipPath></defs></svg>